<?xml version="1.0" encoding="utf-8"?>
<!-- Generator: Adobe Illustrator 21.1.0, SVG Export Plug-In . SVG Version: 6.00 Build 0)  -->
<svg version="1.1" id="Capa_1" xmlns="http://www.w3.org/2000/svg" xmlns:xlink="http://www.w3.org/1999/xlink" x="0px" y="0px"
	 viewBox="0 0 203.7 86" style="enable-background:new 0 0 203.7 86;" xml:space="preserve">
<style type="text/css">
	.st0{fill:#CA071D;}
	.st1{fill:#211914;}
	.st2{fill:#FFFFFF;}
</style>
<g>
	<g>
		<path class="st0" d="M72.8,52.7c4,0,7.3,1.3,9.9,3.8c2.6,2.6,3.9,5.8,3.9,9.7c0,3.8-1.3,6.9-4,9.4c-2.7,2.5-6,3.7-10.1,3.7
			c-3.9,0-7.2-1.3-9.8-3.8c-2.6-2.5-3.9-5.7-3.9-9.5c0-3.8,1.3-7,4-9.5C65.5,53.9,68.8,52.7,72.8,52.7z M72.5,57.3
			c-2.5,0-4.5,0.8-6.1,2.4c-1.6,1.6-2.4,3.7-2.4,6.2c0,2.5,0.8,4.5,2.4,6.1c1.6,1.6,3.7,2.4,6.3,2.4c2.5,0,4.6-0.8,6.2-2.4
			c1.6-1.6,2.4-3.6,2.4-6.1c0-2.5-0.8-4.5-2.5-6.2C77.2,58.1,75.1,57.3,72.5,57.3z"/>
		<path class="st0" d="M97.5,52.7V56c2.3-2.6,4.9-3.8,7.9-3.8c1.6,0,3.1,0.4,4.5,1.3c1.4,0.8,2.5,2,3.2,3.5c0.7,1.5,1.1,3.8,1.1,7
			v14.9h-5.2V64c0-2.7-0.4-4.6-1.2-5.7c-0.8-1.1-2.2-1.7-4.1-1.7c-2.4,0-4.5,1.2-6.2,3.7v18.6h-5.3V52.7H97.5z"/>
		<path class="st0" d="M121.5,39.2h5.2v39.6h-5.2V39.2z"/>
		<path class="st0" d="M136.8,41.8c0.9,0,1.6,0.3,2.2,0.9c0.6,0.6,0.9,1.3,0.9,2.2c0,0.8-0.3,1.6-0.9,2.2c-0.6,0.6-1.3,0.9-2.2,0.9
			c-0.8,0-1.5-0.3-2.1-0.9c-0.6-0.6-0.9-1.3-0.9-2.1c0-0.8,0.3-1.5,0.9-2.1C135.3,42.1,136,41.8,136.8,41.8z M134.3,52.7h5.2v26.1
			h-5.2V52.7z"/>
		<path class="st0" d="M152,52.7V56c2.3-2.6,4.9-3.8,7.9-3.8c1.6,0,3.1,0.4,4.5,1.3c1.4,0.8,2.5,2,3.2,3.5c0.7,1.5,1.1,3.8,1.1,7
			v14.9h-5.2V64c0-2.7-0.4-4.6-1.2-5.7c-0.8-1.1-2.2-1.7-4.1-1.7c-2.4,0-4.5,1.2-6.2,3.7v18.6h-5.3V52.7H152z"/>
		<path class="st0" d="M198.1,66.2h-18.3c0.1,2.5,1,4.5,2.5,6c1.5,1.5,3.5,2.2,6,2.2c3.4,0,6.5-1.1,9.4-3.2v5
			c-1.6,1.1-3.2,1.8-4.7,2.3c-1.6,0.5-3.4,0.7-5.5,0.7c-2.9,0-5.2-0.6-7-1.8c-1.8-1.2-3.2-2.8-4.3-4.8c-1.1-2-1.6-4.3-1.6-7
			c0-4,1.1-7.2,3.4-9.7c2.2-2.5,5.2-3.7,8.8-3.7c3.5,0,6.2,1.2,8.3,3.6c2.1,2.4,3.1,5.7,3.1,9.7V66.2z M179.9,63.1H193
			c-0.1-2.1-0.7-3.6-1.8-4.8c-1.1-1.1-2.6-1.7-4.4-1.7c-1.9,0-3.4,0.6-4.5,1.7C181,59.5,180.3,61.1,179.9,63.1z"/>
	</g>
	<path class="st2" d="M41.2,39.1h-8.9V62c0,6.2-2.5,11-9.9,11c-4.8,0-7.7-2.6-7.7-9.7V39.1H5.8v25.1C5.8,74.7,10.3,80,20.8,80
		c4.4,0,9.3-2.7,11.5-6.7h0.2v5.6h8.7V39.1L41.2,39.1z"/>
	<polygon class="st0" points="10.9,28 36,28 36,32.4 10.9,32.4 10.9,28 	"/>
	<path class="st0" d="M20.4,9.1c0-1.7,1.4-3.2,3.2-3.2c1.7,0,3.2,1.4,3.2,3.2c0,1.7-1.4,3.2-3.2,3.2C21.9,12.3,20.4,10.9,20.4,9.1
		L20.4,9.1z"/>
	<path class="st0" d="M5.8,19.9c0-2.9,2.3-5.2,5.2-5.2c2.9,0,5.2,2.3,5.2,5.2c0,2.9-2.3,5.2-5.2,5.2C8.1,25.1,5.8,22.7,5.8,19.9
		L5.8,19.9z"/>
	<path class="st0" d="M18.3,19.9c0-2.9,2.3-5.2,5.2-5.2c2.9,0,5.2,2.3,5.2,5.2c0,2.9-2.3,5.2-5.2,5.2C20.6,25.1,18.3,22.7,18.3,19.9
		L18.3,19.9z"/>
	<path class="st0" d="M30.9,19.9c0-2.9,2.3-5.2,5.2-5.2c2.9,0,5.2,2.3,5.2,5.2c0,2.9-2.3,5.2-5.2,5.2C33.2,25.1,30.9,22.7,30.9,19.9
		L30.9,19.9z"/>
</g>
</svg>
