<svg xmlns="http://www.w3.org/2000/svg" viewBox="0 0 357.96 138.4"><defs><style>.cls-1,.cls-3{fill:#1d1d1b;}.cls-2{fill:#e41f13;}.cls-3{fill-rule:evenodd;}</style></defs><g id="Layer_2" data-name="Layer 2"><g id="Capa_1" data-name="Capa 1"><path class="cls-1" d="M62.72,58.62H47v40.6c0,11-4.42,19.48-17.54,19.48-8.57,0-13.68-4.56-13.68-17.13V58.62H0v44.47c0,18.65,8,28,26.66,28,7.88,0,16.44-4.69,20.31-11.88h.28v9.95H62.72V58.62Z"/><polygon class="cls-2" points="9.15 39.02 53.58 39.02 53.58 46.86 9.15 46.86 9.15 39.02 9.15 39.02"/><path class="cls-2" d="M26,5.6a5.6,5.6,0,1,1,5.6,5.59A5.6,5.6,0,0,1,26,5.6Z"/><path class="cls-2" d="M0,24.67a9.15,9.15,0,1,1,9.15,9.15A9.15,9.15,0,0,1,0,24.67Z"/><path class="cls-2" d="M22.21,24.67a9.15,9.15,0,1,1,9.15,9.15,9.15,9.15,0,0,1-9.15-9.15Z"/><path class="cls-2" d="M44.43,24.67a9.15,9.15,0,1,1,9.15,9.15,9.14,9.14,0,0,1-9.15-9.15Z"/><path class="cls-1" d="M128.1,58.61h-3.92v15.9c0,2.56-.32,4.57-1.73,6a8.93,8.93,0,0,1-6.41,2.2,8,8,0,0,1-5.88-2.32c-1.24-1.24-1.65-2.53-1.65-5.61V58.61h-3.92v17c0,7.45,5.61,10.69,11.37,10.69,8.14,0,12.14-4.4,12.14-11.09V58.61Z"/><path class="cls-3" d="M157.61,67.94H154v18h3.57v-18Zm.36-5.45a2.13,2.13,0,1,0-2.12,2.13A2.13,2.13,0,0,0,158,62.49Z"/><path class="cls-3" d="M196.26,80.72A11.43,11.43,0,0,1,190,82.88c-3.45,0-5.49-1.84-6-5.41h12.65c0-6.65-3-9.89-7.8-9.89-5,0-8.42,3.69-8.42,9.13,0,5,3.13,9.57,8.74,9.57a11.68,11.68,0,0,0,7.16-2.12V80.72ZM184,75.11c.48-2.84,2.12-4.45,4.84-4.45,2.53,0,4.09,1.73,4.21,4.45Z"/><path class="cls-3" d="M236.36,67.94H232.8v18h3.56v-18Zm.36-5.45a2.12,2.12,0,1,0-2.12,2.13,2.13,2.13,0,0,0,2.12-2.13Z"/><path class="cls-3" d="M257.09,58.61h-3.56V68.3a10.59,10.59,0,0,0-3.77-.72,8.61,8.61,0,0,0-9,8.93c0,5.77,3.37,9.41,8.73,9.41h7.57V58.61Zm-3.56,24.31h-3.61c-4.12,0-5.48-2.52-5.48-5.89,0-3.76,2.32-6.24,5.76-6.24a8.11,8.11,0,0,1,3.33.68V82.92Z"/><path class="cls-3" d="M277.13,82.72a4.29,4.29,0,0,1-1.89,1c-.44,0-.68-.24-.68-.92V73.51c0-4.09-2.88-5.93-6.53-5.93a7.39,7.39,0,0,0-6,2.44v3.89a7.48,7.48,0,0,1,5.69-3c2.16,0,3.25.93,3.25,3.17v1l-3.17,1.12c-2.88,1-6.13,2.12-6.13,5.69a4.34,4.34,0,0,0,4.41,4.4A7.78,7.78,0,0,0,271,84.44c.32,1.28,1.16,1.84,2.72,1.84,1.12,0,1.8-.32,3.45-1.4V82.72ZM271,82.28a4.58,4.58,0,0,1-3.13,1.48,2.45,2.45,0,0,1-2.56-2.52c0-2.12,2.64-3.16,5.69-4.21v5.25Z"/><path class="cls-3" d="M295.33,58.61h-3.56V68.3a10.59,10.59,0,0,0-3.77-.72,8.61,8.61,0,0,0-9,8.93c0,5.77,3.36,9.41,8.74,9.41h7.56V58.61Zm-3.56,24.31h-3.61c-4.12,0-5.48-2.52-5.48-5.89,0-3.76,2.32-6.24,5.76-6.24a8.11,8.11,0,0,1,3.33.68V82.92Z"/><path class="cls-1" d="M227.64,69.06a11.22,11.22,0,0,0-5.29-1.48c-3.6,0-5.93,1.84-5.93,4.89,0,4.84,8.42,6.16,8.42,8.65,0,1.28-1.21,2-2.65,2a11.5,11.5,0,0,1-5.89-2.36v3.84a12.46,12.46,0,0,0,6.24,1.64c3.41,0,5.93-2.12,5.93-5.28,0-1.84-1.07-3.09-4-5-3.16-1.84-4.37-2.8-4.37-3.6,0-1,.92-1.65,2.37-1.65a10.15,10.15,0,0,1,5.21,1.89V69.06Z"/><path class="cls-1" d="M200.81,67.94v18h3.56V76.51c0-3.08,1.93-5.53,4.37-5.53a5.91,5.91,0,0,1,3.32,1.77L214,69.66a6.29,6.29,0,0,0-4.29-2.08c-1.68,0-3.4,1.32-5.21,4.48h-.08V67.94Z"/><polygon class="cls-1" points="169.47 86.28 170.67 86.28 178.6 67.94 174.8 67.94 170.07 79 165.22 67.94 161.34 67.94 169.47 86.28 169.47 86.28"/><path class="cls-1" d="M137.26,67.94h-3.57v18h3.57V73c1.68-1.88,2.92-2.61,4.48-2.61,2.17,0,3.53,1.73,3.53,4.37V85.92h3.56V74.83c0-4.93-2.72-7.25-6.13-7.25a6.92,6.92,0,0,0-5.36,2.73h-.08V67.94Z"/><path class="cls-3" d="M104.62,101.87v27.32h3.93V117.33h1.64c2,0,3.64.64,7.25,6.25l3.6,5.61h4.69c-1.88-2.6-2.56-3.52-3.73-5.41-2.08-3.4-3.6-5.93-6.08-7.57a6.83,6.83,0,0,0,4.56-6.69c0-4.72-3.44-7.65-9-7.65Zm3.93,3.37h2.52c3.8,0,5.33,1.56,5.37,4.12,0,2.29-1.17,4.45-5.37,4.45h-2.52v-8.57Z"/><path class="cls-3" d="M142.92,124a11.43,11.43,0,0,1-6.28,2.16c-3.45,0-5.49-1.84-6-5.4h12.66c0-6.65-3.05-9.9-7.81-9.9-5,0-8.42,3.69-8.42,9.14,0,5,3.13,9.57,8.74,9.57a11.68,11.68,0,0,0,7.16-2.12V124Zm-12.25-5.6c.48-2.85,2.12-4.45,4.85-4.45,2.52,0,4.08,1.72,4.2,4.45Z"/><path class="cls-3" d="M222.77,126a4.21,4.21,0,0,1-1.88,1c-.45,0-.69-.24-.69-.93v-9.25c0-4.08-2.88-5.93-6.52-5.93a7.37,7.37,0,0,0-6,2.45v3.89a7.42,7.42,0,0,1,5.69-3c2.16,0,3.24.92,3.24,3.16v1l-3.16,1.13c-2.89,1-6.13,2.12-6.13,5.68a4.35,4.35,0,0,0,4.41,4.41,7.75,7.75,0,0,0,4.84-1.84c.32,1.28,1.16,1.84,2.72,1.84,1.12,0,1.81-.32,3.45-1.4V126Zm-6.13-.44a4.61,4.61,0,0,1-3.13,1.49A2.46,2.46,0,0,1,211,124.5c0-2.12,2.65-3.16,5.69-4.2v5.24Z"/><path class="cls-1" d="M280.14,103.76a23.62,23.62,0,0,0-9.37-2.25c-8.69,0-15,6.09-15,14.42,0,5.73,4.48,13.62,14.74,13.62a20.08,20.08,0,0,0,9.9-2.4v-4.29a18,18,0,0,1-9.54,3.09c-6.57,0-11.06-4.25-11.06-10.38s4.65-10.45,10.9-10.45a18,18,0,0,1,9.41,2.84v-4.2Z"/><polygon class="cls-1" points="321.83 101.88 318.26 101.88 318.26 129.19 321.83 129.19 321.83 101.88 321.83 101.88"/><path class="cls-3" d="M334.11,110.84a9.36,9.36,0,1,0,0,18.71c5.77,0,9.74-3.84,9.74-9.53,0-5.33-4.09-9.18-9.74-9.18Zm0,3.21a5.85,5.85,0,0,1,6.12,6c0,3.88-2.36,6.28-6.12,6.28-3.45,0-5.81-2.52-5.81-6.32a5.7,5.7,0,0,1,5.81-6Z"/><path class="cls-1" d="M357.12,112.33a11.18,11.18,0,0,0-5.29-1.49c-3.6,0-5.92,1.85-5.92,4.89,0,4.85,8.4,6.17,8.4,8.65,0,1.29-1.19,2-2.64,2a11.38,11.38,0,0,1-5.88-2.36v3.85a12.46,12.46,0,0,0,6.24,1.64c3.41,0,5.93-2.12,5.93-5.29,0-1.84-1.08-3.08-4-5-3.16-1.85-4.36-2.81-4.36-3.61,0-1,.92-1.64,2.36-1.64a10.07,10.07,0,0,1,5.21,1.88v-3.52Z"/><polygon class="cls-1" points="162.17 111.21 158.16 111.21 153.52 121.34 148.67 111.21 144.63 111.21 151.59 125.34 145.47 138.4 149.43 138.4 162.17 111.21 162.17 111.21"/><path class="cls-1" d="M181.28,101.87h-3.93v26.48c0,4.24-.36,6.33-4.53,6.33h-1l.72,3.64a10.67,10.67,0,0,0,1.21.08c5.48,0,7.53-3.8,7.53-8.89V101.87Z"/><path class="cls-3" d="M202.55,129.19v-18H199v12.85a5.31,5.31,0,0,1-4.29,2.53c-2.44,0-3.68-1.45-3.68-4V111.21h-3.57v11.17c0,4.57,2.56,7.17,6.21,7.17a7.86,7.86,0,0,0,5.33-2.64v2.28Z"/><path class="cls-1" d="M229.78,111.21h-3.56v18h3.56v-12.9c1.69-1.88,2.93-2.6,4.5-2.6,2.16,0,3.51,1.72,3.51,4.37v11.13h3.57V118.1c0-4.93-2.72-7.26-6.13-7.26a7,7,0,0,0-5.37,2.73h-.08v-2.36Z"/><path class="cls-3" d="M299.11,126a4.11,4.11,0,0,1-1.88,1c-.44,0-.67-.24-.67-.93v-9.25c0-4.08-2.89-5.93-6.53-5.93a7.37,7.37,0,0,0-6,2.45v3.89a7.42,7.42,0,0,1,5.68-3c2.17,0,3.25.92,3.25,3.16v1l-3.17,1.13c-2.88,1-6.13,2.12-6.13,5.68a4.35,4.35,0,0,0,4.41,4.41,7.75,7.75,0,0,0,4.85-1.84c.32,1.28,1.16,1.84,2.72,1.84,1.12,0,1.8-.32,3.44-1.4V126Zm-6.12-.44a4.59,4.59,0,0,1-3.12,1.49,2.46,2.46,0,0,1-2.57-2.53c0-2.12,2.64-3.16,5.69-4.2v5.24Z"/><path class="cls-1" d="M302.65,111.21v18h3.57v-9.41c0-3.09,1.92-5.53,4.36-5.53a5.9,5.9,0,0,1,3.33,1.76l1.88-3.08a6.29,6.29,0,0,0-4.28-2.09c-1.69,0-3.41,1.32-5.21,4.49h-.08v-4.12Z"/></g></g></svg>